<svg width="497" height="82" viewBox="0 0 497 82" fill="none" xmlns="http://www.w3.org/2000/svg">
<path d="M253.821 81.6589H252.715V71.8937H250.475V70.8274H256.061V71.8937H253.82V81.6589H253.821ZM258.305 75.6872H263.024V76.7535H258.305V80.608H263.024V81.6589H257.2V70.8274H263.024V71.8937H258.305V75.6872ZM274.07 73.6303C273.568 72.9548 273.005 72.4597 272.381 72.1428C271.761 71.8255 271.051 71.6653 270.254 71.6653C269.008 71.6653 267.939 72.112 267.053 73.0058C266.167 73.8992 265.722 74.9607 265.722 76.1924C265.722 77.5025 266.164 78.6067 267.045 79.5031C267.926 80.4017 268.995 80.851 270.254 80.851C271.03 80.851 271.732 80.6935 272.358 80.3811C272.984 80.0664 273.529 79.5991 273.992 78.9768H275.301C274.789 79.8987 274.1 80.6117 273.237 81.1173C272.374 81.6199 271.406 81.8712 270.333 81.8712C268.684 81.8712 267.308 81.3281 266.206 80.2438C265.104 79.1572 264.554 77.8014 264.554 76.1762C264.554 75.4175 264.704 74.6985 265.001 74.0181C265.299 73.34 265.736 72.7283 266.312 72.1826C266.845 71.6668 267.445 71.2764 268.111 71.012C268.776 70.7457 269.497 70.6133 270.273 70.6133C271.388 70.6133 272.39 70.8747 273.282 71.4005C274.173 71.9264 274.878 72.6701 275.396 73.6295H274.07L274.07 73.6303ZM284.439 80.3638L284.312 70.8274H285.401V81.6589H284.075L277.921 72.1072L278.047 81.6589H276.958V70.8274H278.284L284.439 80.3638ZM288.1 76.1946C288.1 77.5148 288.544 78.6194 289.434 79.5132C290.322 80.4043 291.419 80.8514 292.724 80.8514C293.997 80.8514 295.073 80.3995 295.951 79.4978C296.83 78.5943 297.269 77.4845 297.269 76.1642C297.269 74.9351 296.817 73.8737 295.912 72.9852C295.009 72.094 293.921 71.6496 292.645 71.6496C292.127 71.6496 291.627 71.7362 291.148 71.9061C290.667 72.076 290.225 72.3303 289.817 72.66C289.284 73.0966 288.863 73.6299 288.558 74.2597C288.253 74.8894 288.1 75.5345 288.1 76.1942V76.1946ZM286.948 76.177C286.948 75.4231 287.098 74.7045 287.398 74.0189C287.7 73.3359 288.134 72.7241 288.705 72.1833C289.255 71.6627 289.86 71.2715 290.52 71.0078C291.18 70.7464 291.896 70.614 292.666 70.614C293.45 70.614 294.179 70.7464 294.85 71.0127C295.52 71.2768 296.133 71.6728 296.687 72.1983C297.259 72.7391 297.687 73.3434 297.974 74.0114C298.261 74.6816 298.405 75.4025 298.405 76.177C298.405 76.944 298.281 77.6499 298.034 78.292C297.789 78.9345 297.418 79.5184 296.927 80.0439C296.356 80.6481 295.712 81.1031 294.991 81.4103C294.273 81.7174 293.492 81.872 292.65 81.872C291.037 81.872 289.683 81.3262 288.589 80.2322C287.495 79.1404 286.948 77.7868 286.948 76.177H286.948ZM304.989 81.6589H299.939V70.8274H301.044V80.6076H304.989V81.6585V81.6589ZM306.464 76.195C306.464 77.5152 306.909 78.6198 307.798 79.5136C308.686 80.4047 309.784 80.8518 311.088 80.8518C312.361 80.8518 313.437 80.3998 314.315 79.4982C315.194 78.5946 315.633 77.4848 315.633 76.1646C315.633 74.9355 315.181 73.8741 314.276 72.9856C313.374 72.0944 312.284 71.65 311.009 71.65C310.491 71.65 309.991 71.7366 309.513 71.9065C309.031 72.0764 308.589 72.3307 308.182 72.6604C307.648 73.097 307.227 73.6303 306.922 74.26C306.616 74.8898 306.464 75.5349 306.464 76.1946V76.195ZM305.312 76.1774C305.312 75.4235 305.462 74.7049 305.762 74.0192C306.065 73.3363 306.498 72.7245 307.07 72.1837C307.619 71.6631 308.224 71.2719 308.884 71.0082C309.544 70.7468 310.259 70.6144 311.031 70.6144C311.814 70.6144 312.543 70.7468 313.213 71.0131C313.884 71.2771 314.497 71.6732 315.052 72.1987C315.623 72.7395 316.051 73.3437 316.338 74.0117C316.625 74.682 316.769 75.4029 316.769 76.1774C316.769 76.9444 316.645 77.6502 316.399 78.2923C316.154 78.9348 315.783 79.5188 315.291 80.0443C314.72 80.6485 314.076 81.1035 313.355 81.4106C312.637 81.7178 311.856 81.8723 311.014 81.8723C309.402 81.8723 308.048 81.3266 306.953 80.2326C305.859 79.1407 305.312 77.7871 305.312 76.1774H305.312ZM322.216 76.4643H329.192C329.1 78.0411 328.51 79.3361 327.427 80.3514C326.343 81.3649 325.012 81.8723 323.437 81.8723C321.819 81.8723 320.465 81.3266 319.373 80.2374C318.282 79.1456 317.735 77.7924 317.735 76.1774C317.735 75.4186 317.885 74.6996 318.182 74.0192C318.479 73.3411 318.916 72.7294 319.492 72.1837C320.046 71.653 320.66 71.2595 321.333 71.0007C322.007 70.7442 322.754 70.6144 323.577 70.6144C324.666 70.6144 325.642 70.8683 326.507 71.3788C327.375 71.8866 328.069 72.6127 328.592 73.5549H327.235C326.706 72.9049 326.139 72.4248 325.536 72.1154C324.931 71.8056 324.258 71.6507 323.511 71.6507C322.222 71.6507 321.131 72.0952 320.239 72.9863C319.347 73.8748 318.902 74.9464 318.902 76.1954C318.902 77.5235 319.347 78.6329 320.236 79.5218C321.125 80.4077 322.222 80.8522 323.527 80.8522C324.555 80.8522 325.475 80.5349 326.29 79.8976C327.106 79.2626 327.635 78.4375 327.882 77.4248H322.216V76.4647V76.4643ZM331.814 81.6593H330.71V70.8278H331.814V81.6593ZM333.629 81.6593H332.464L336.819 70.8278H338.145L342.485 81.6593H341.307L339.965 78.2623H334.97L333.629 81.6593ZM339.578 77.2872L337.451 71.8484L335.354 77.2872H339.578ZM348.882 75.6875H353.6V76.7538H348.882V80.6084H353.6V81.6593H347.776V70.8278H353.6V71.8941H348.882V75.6875ZM355.762 81.6593V70.8278H357.383L361.267 80.2449L365.134 70.8278H366.761V81.6593H365.704V72.0922L361.759 81.6593H360.765L356.82 72.0922V81.6593H355.762ZM375.589 81.6593H374.484V71.8941H372.243V70.8278H377.83V71.8941H375.588V81.6593H375.589ZM380.073 75.6875H384.792V76.7538H380.073V80.6084H384.792V81.6593H378.968V70.8278H384.792V71.8941H380.073V75.6875ZM394.339 80.3642L394.213 70.8278H395.302V81.6593H393.976L387.821 72.1075L387.948 81.6593H386.859V70.8278H388.185L394.339 80.3642ZM396.817 78.5665H397.875C397.895 79.2368 398.093 79.7671 398.466 80.1662C398.84 80.5622 399.332 80.7603 399.939 80.7603C400.594 80.7603 401.112 80.5622 401.496 80.1688C401.88 79.775 402.073 79.2394 402.073 78.5665C402.073 77.5839 401.286 76.8423 399.71 76.3424C399.587 76.3015 399.495 76.2737 399.431 76.2535C398.611 75.9789 398.022 75.6339 397.659 75.2149C397.299 74.796 397.117 74.2499 397.117 73.5748C397.117 72.7114 397.396 72.0059 397.954 71.4549C398.511 70.904 399.229 70.6298 400.113 70.6298C400.955 70.6298 401.623 70.8811 402.117 71.381C402.609 71.8814 402.885 72.5872 402.94 73.4934H401.899C401.844 72.9046 401.66 72.45 401.352 72.13C401.044 71.8101 400.629 71.65 400.111 71.65C399.556 71.65 399.103 71.8255 398.751 72.1732C398.398 72.5235 398.222 72.9679 398.222 73.5088C398.222 73.7904 398.274 74.0342 398.38 74.2424C398.485 74.4479 398.654 74.6336 398.885 74.8035C399.121 74.9708 399.574 75.1587 400.242 75.3668C400.626 75.4861 400.92 75.5825 401.12 75.6564C401.849 75.9309 402.375 76.2786 402.696 76.7025C403.017 77.1267 403.177 77.6825 403.177 78.3704C403.177 79.4217 402.88 80.2674 402.286 80.9095C401.694 81.552 400.905 81.872 399.923 81.872C399.009 81.872 398.266 81.57 397.696 80.9628C397.126 80.3563 396.833 79.5563 396.818 78.5661L396.817 78.5665ZM405.336 76.195C405.336 77.5152 405.781 78.6198 406.67 79.5136C407.559 80.4047 408.656 80.8518 409.96 80.8518C411.233 80.8518 412.309 80.3998 413.187 79.4982C414.066 78.5946 414.505 77.4848 414.505 76.1646C414.505 74.9355 414.053 73.8741 413.148 72.9856C412.246 72.0944 411.157 71.65 409.881 71.65C409.363 71.65 408.863 71.7366 408.385 71.9065C407.903 72.0764 407.462 72.3307 407.054 72.6604C406.52 73.097 406.099 73.6303 405.794 74.26C405.489 74.8898 405.336 75.5349 405.336 76.1946V76.195ZM404.184 76.1774C404.184 75.4235 404.334 74.7049 404.634 74.0192C404.937 73.3363 405.371 72.7245 405.942 72.1837C406.491 71.6631 407.097 71.2719 407.756 71.0082C408.416 70.7468 409.132 70.6144 409.903 70.6144C410.687 70.6144 411.415 70.7468 412.086 71.0131C412.757 71.2771 413.369 71.6732 413.924 72.1987C414.495 72.7395 414.923 73.3437 415.21 74.0117C415.497 74.682 415.642 75.4029 415.642 76.1774C415.642 76.9444 415.518 77.6502 415.271 78.2923C415.026 78.9348 414.655 79.5188 414.163 80.0443C413.592 80.6485 412.948 81.1035 412.227 81.4106C411.509 81.7178 410.728 81.8723 409.886 81.8723C408.274 81.8723 406.92 81.3266 405.825 80.2326C404.731 79.1407 404.184 77.7871 404.184 76.1774H404.184ZM418.28 75.6875H422.998V76.7538H418.28V80.6084H422.998V81.6593H417.175V70.8278H422.998V71.8941H418.28V75.6875ZM424.498 78.5669H425.555C425.576 79.2371 425.773 79.7675 426.147 80.1665C426.521 80.5626 427.012 80.7606 427.62 80.7606C428.274 80.7606 428.793 80.5626 429.177 80.1692C429.561 79.7754 429.753 79.2398 429.753 78.5669C429.753 77.5842 428.967 76.8427 427.391 76.3428C427.267 76.3019 427.176 76.2741 427.112 76.2539C426.292 75.9793 425.702 75.6343 425.339 75.2153C424.979 74.7964 424.797 74.2503 424.797 73.5752C424.797 72.7118 425.077 72.0063 425.634 71.4553C426.191 70.9043 426.91 70.6302 427.793 70.6302C428.635 70.6302 429.303 70.8815 429.798 71.3814C430.289 71.8817 430.566 72.5876 430.621 73.4938H429.579C429.524 72.9049 429.34 72.4503 429.033 72.1304C428.725 71.8105 428.309 71.6503 427.791 71.6503C427.236 71.6503 426.784 71.8259 426.431 72.1736C426.079 72.5239 425.903 72.9683 425.903 73.5092C425.903 73.7908 425.955 74.0346 426.06 74.2428C426.166 74.4483 426.334 74.634 426.565 74.8039C426.802 74.9712 427.254 75.1591 427.922 75.3672C428.306 75.4865 428.601 75.5829 428.801 75.6568C429.53 75.9313 430.056 76.279 430.376 76.7028C430.698 77.127 430.858 77.6829 430.858 78.3707C430.858 79.422 430.561 80.2678 429.967 80.9099C429.374 81.5524 428.586 81.8723 427.604 81.8723C426.689 81.8723 425.947 81.5704 425.377 80.9632C424.806 80.3567 424.514 79.5567 424.498 78.5665L424.498 78.5669ZM434.832 81.6593H433.727V71.8941H431.486V70.8278H437.073V71.8941H434.831V81.6593H434.832ZM439.143 71.8941V81.6593H438.054V70.8278H441.071C441.733 70.8278 442.267 70.8758 442.67 70.9726C443.075 71.069 443.441 71.2288 443.769 71.4523C444.216 71.7546 444.569 72.1582 444.829 72.6638C445.089 73.1712 445.219 73.7072 445.219 74.2709C445.219 75.1088 444.961 75.83 444.443 76.4343C443.927 77.0408 443.28 77.3686 442.505 77.4245L445.219 81.6593H443.909L440.576 76.4343H441.642C442.349 76.4343 442.925 76.2336 443.369 75.8327C443.814 75.4314 444.035 74.9156 444.035 74.2859C444.035 73.9052 443.967 73.5598 443.83 73.2477C443.696 72.9357 443.494 72.6611 443.228 72.4301C443.007 72.2369 442.741 72.0974 442.431 72.0164C442.118 71.935 441.565 71.8945 440.771 71.8945H439.143L439.143 71.8941ZM446.815 70.8278H447.92V77.678C447.92 78.2065 447.941 78.6048 447.985 78.8662C448.028 79.1302 448.101 79.3613 448.204 79.5672C448.406 79.9783 448.698 80.3008 449.087 80.5319C449.474 80.7655 449.913 80.8822 450.403 80.8822C451.249 80.8822 451.876 80.6027 452.283 80.0443C452.688 79.4884 452.89 78.625 452.89 77.4545V70.8278H453.979V77.7133C453.979 79.1175 453.69 80.1635 453.111 80.854C452.532 81.5423 451.654 81.8877 450.478 81.8877C449.218 81.8877 448.292 81.5498 447.701 80.8769C447.108 80.2014 446.814 79.1479 446.814 77.7133V70.8278H446.815ZM458.303 81.6593H457.198V71.8941H454.958V70.8278H460.544V71.8941H458.303V81.6593H458.303ZM461.51 70.8278H462.614V77.678C462.614 78.2065 462.635 78.6048 462.68 78.8662C462.722 79.1302 462.795 79.3613 462.898 79.5672C463.1 79.9783 463.392 80.3008 463.782 80.5319C464.169 80.7655 464.607 80.8822 465.097 80.8822C465.943 80.8822 466.57 80.6027 466.977 80.0443C467.382 79.4884 467.585 78.625 467.585 77.4545V70.8278H468.674V77.7133C468.674 79.1175 468.384 80.1635 467.805 80.854C467.226 81.5423 466.348 81.8877 465.173 81.8877C463.912 81.8877 462.986 81.5498 462.395 80.8769C461.803 80.2014 461.509 79.1479 461.509 77.7133V70.8278H461.51ZM471.53 71.8941V81.6593H470.442V70.8278H473.459C474.121 70.8278 474.655 70.8758 475.058 70.9726C475.463 71.069 475.828 71.2288 476.157 71.4523C476.604 71.7546 476.956 72.1582 477.217 72.6638C477.477 73.1712 477.606 73.7072 477.606 74.2709C477.606 75.1088 477.349 75.83 476.83 76.4343C476.315 77.0408 475.668 77.3686 474.892 77.4245L477.606 81.6593H476.296L472.964 76.4343H474.029C474.736 76.4343 475.313 76.2336 475.757 75.8327C476.201 75.4314 476.423 74.9156 476.423 74.2859C476.423 73.9052 476.354 73.5598 476.218 73.2477C476.084 72.9357 475.881 72.6611 475.616 72.4301C475.394 72.2369 475.129 72.0974 474.819 72.0164C474.506 71.935 473.953 71.8945 473.159 71.8945H471.531L471.53 71.8941ZM479.105 81.6593H477.94L482.296 70.8278H483.621L487.961 81.6593H486.783L485.442 78.2623H480.446L479.105 81.6593ZM485.055 77.2872L482.927 71.8484L480.831 77.2872H485.055ZM488.64 78.5669H489.697C489.718 79.2371 489.916 79.7675 490.289 80.1665C490.663 80.5626 491.154 80.7606 491.762 80.7606C492.417 80.7606 492.935 80.5626 493.319 80.1692C493.703 79.7754 493.895 79.2398 493.895 78.5669C493.895 77.5842 493.109 76.8427 491.533 76.3428C491.41 76.3019 491.318 76.2741 491.254 76.2539C490.434 75.9793 489.844 75.6343 489.482 75.2153C489.122 74.7964 488.94 74.2503 488.94 73.5752C488.94 72.7118 489.219 72.0063 489.777 71.4553C490.334 70.9043 491.052 70.6302 491.936 70.6302C492.777 70.6302 493.445 70.8815 493.94 71.3814C494.432 71.8817 494.708 72.5876 494.763 73.4938H493.722C493.667 72.9049 493.483 72.4503 493.175 72.1304C492.867 71.8105 492.451 71.6503 491.934 71.6503C491.379 71.6503 490.926 71.8259 490.574 72.1736C490.221 72.5239 490.045 72.9683 490.045 73.5092C490.045 73.7908 490.097 74.0346 490.203 74.2428C490.308 74.4483 490.476 74.634 490.707 74.8039C490.944 74.9712 491.397 75.1591 492.065 75.3672C492.449 75.4865 492.743 75.5829 492.943 75.6568C493.672 75.9313 494.198 76.279 494.519 76.7028C494.84 77.127 495 77.6829 495 78.3707C495 79.422 494.703 80.2678 494.109 80.9099C493.517 81.5524 492.728 81.8723 491.747 81.8723C490.832 81.8723 490.09 81.5704 489.519 80.9632C488.948 80.3567 488.656 79.5567 488.641 78.5665L488.64 78.5669Z" fill="#FEFEFE"/>
<path fill-rule="evenodd" clip-rule="evenodd" d="M14.1192 40.1316C14.1192 43.0796 15.2193 45.6188 17.4201 47.7349C19.5921 49.8649 22.1737 50.9229 25.1502 50.9229C28.1545 50.9229 30.7364 49.8649 32.9227 47.7349C35.1232 45.6188 36.2232 43.0796 36.2232 40.1316C36.2232 38.2131 35.7158 36.4496 34.6997 34.8417C33.6702 33.2191 32.3158 31.9218 30.6093 30.9624C28.9166 30.003 27.0964 29.509 25.1502 29.509C23.2456 29.509 21.4401 30.003 19.7335 30.9624C18.0262 31.9218 16.658 33.2191 15.6427 34.8417C14.627 36.4496 14.1192 38.2131 14.1192 40.1316ZM75.6684 24.6182C79.8999 24.6182 83.7315 26.3341 86.5047 29.1069C89.2772 31.8798 90.9931 35.7118 90.9931 39.9433C90.9931 44.1748 89.2772 48.0064 86.5044 50.7797C83.7319 53.5521 79.8999 55.268 75.6684 55.268C71.4369 55.268 67.6052 53.5521 64.832 50.7793C62.0592 48.0068 60.3432 44.1748 60.3432 39.9433C60.3432 35.7118 62.0592 31.8802 64.832 29.1069C67.6049 26.3341 71.4369 24.6182 75.6684 24.6182ZM0.929688 2.60864L14.1192 2.56664V20.0158L15.0644 19.5923L16.0091 19.1835C18.9857 18.1112 22.0327 17.5752 25.1502 17.5752C28.2816 17.5752 31.3425 18.1112 34.3194 19.1835C37.2111 20.2558 39.8209 21.8356 42.1339 23.9374C44.4195 25.9969 46.197 28.4089 47.4665 31.1739C48.7639 33.9528 49.4131 36.9435 49.4131 40.1312C49.4131 43.4179 48.7785 46.4225 47.5089 49.1451C46.239 51.8673 44.4477 54.294 42.1343 56.424C39.7927 58.5397 37.183 60.1195 34.3198 61.1779C31.4277 62.3061 28.3668 62.8702 25.1506 62.8702C20.9326 62.8702 16.9547 61.8688 13.2025 59.8937C9.45039 57.9329 6.48776 55.2388 4.27338 51.7826C2.0725 48.3972 0.958184 44.6166 0.930054 40.4271V2.60827L0.929688 2.60864ZM75.6931 62.871C71.4752 62.871 67.4972 61.8696 63.7451 59.8945C59.9929 57.9055 57.0303 55.1972 54.8159 51.7552C52.5873 48.2708 51.4726 44.3916 51.4726 40.0892C51.4726 36.8726 52.1215 33.868 53.4196 31.0895C54.7169 28.2964 56.4947 25.8983 58.7519 23.853C61.0371 21.7936 63.6322 20.1995 66.5524 19.0991C69.529 17.999 72.576 17.4484 75.6935 17.4484C78.8249 17.4484 81.8858 17.9987 84.8627 19.0991C87.7545 20.1429 90.3641 21.7227 92.6772 23.8107C94.9628 25.9125 96.7402 28.3246 98.0098 31.0895C99.3072 33.8684 99.9564 36.873 99.9564 40.0892C99.9564 43.3759 99.3218 46.3805 98.0522 49.1031C96.7822 51.8538 94.9909 54.2944 92.6775 56.4244C90.336 58.5124 87.7263 60.0921 84.8631 61.1783C81.971 62.3065 78.9101 62.8706 75.6939 62.8706L75.6931 62.871ZM134.587 31.9499C133.402 30.9628 132.104 30.2153 130.694 29.7213C129.24 29.2277 127.689 28.9738 126.067 28.9738C123.034 28.9738 120.481 29.9613 118.379 31.9079C116.263 33.8688 115.205 36.2951 115.205 39.1868C115.205 41.4439 115.656 43.4749 116.559 45.2666C117.448 47.0579 118.76 48.4689 120.495 49.5123C122.173 50.5985 124.106 51.1348 126.321 51.1348C129.565 51.1348 132.344 50.091 134.672 48.0316L141.894 57.2004C140.85 58.3008 139.383 59.2884 137.521 60.1349C135.616 60.9953 133.656 61.6299 131.653 62.0391C129.635 62.4483 127.773 62.6598 126.067 62.6598C121.27 62.6598 117.038 61.6588 113.385 59.6413C109.717 57.6103 106.91 54.9297 104.949 51.6292C102.988 48.272 102.015 44.6747 102.015 40.8378C102.015 37.3396 102.608 34.1654 103.793 31.3299C105.006 28.4382 106.67 25.9556 108.786 23.8962C110.888 21.8791 113.441 20.2993 116.432 19.1422C119.408 18.0137 122.625 17.4496 126.067 17.4496C128.874 17.4496 131.624 17.8869 134.291 18.7758C136.999 19.6782 139.369 20.9624 141.443 22.6123L134.587 31.9507V31.9499ZM154.054 34.7573C155.07 33.1348 156.438 31.8374 158.145 30.878C159.852 29.9467 161.657 29.467 163.561 29.467C165.508 29.467 167.328 29.9467 169.02 30.878C170.727 31.8374 172.081 33.1348 173.111 34.7573C174.127 36.3933 174.634 38.1711 174.634 40.0896C174.634 43.0094 173.534 45.5344 171.334 47.6644C169.147 49.7523 166.566 50.7962 163.561 50.7962C160.584 50.7962 158.003 49.7523 155.831 47.6644C153.63 45.5344 152.53 43.0094 152.53 40.0896C152.53 38.1711 153.038 36.3937 154.054 34.7573ZM174.677 61.5027L187.782 61.6299L187.824 40.0896C187.824 36.873 187.175 33.8684 185.878 31.0899C184.608 28.3816 182.816 25.9834 180.503 23.8954C178.302 21.8498 175.707 20.2839 172.731 19.1839C169.754 18.0838 166.693 17.5332 163.562 17.5332C160.388 17.5332 157.327 18.0973 154.378 19.2259C151.43 20.2982 148.849 21.8494 146.62 23.895C144.363 25.926 142.585 28.3242 141.288 31.0895C139.99 33.8684 139.341 36.873 139.341 40.0892C139.341 44.3634 140.455 48.2423 142.684 51.7128C144.898 55.1267 147.861 57.8207 151.613 59.8097C155.365 61.7705 159.343 62.7438 163.561 62.7438C166.749 62.7438 169.81 62.1801 172.731 61.0515C173.154 60.9101 173.789 60.6423 174.677 60.2617V61.5027ZM211.579 17.7309C210.705 17.6037 209.802 17.5193 208.899 17.4908H208.151C195.978 18.0973 189.884 24.4171 189.884 36.4642V61.5027H203.116V36.4642C203.116 31.9075 204.794 29.566 208.152 29.4392H208.899C210 29.4816 210.888 29.7494 211.58 30.2153V17.7312L211.579 17.7309ZM235.348 17.7309C234.474 17.6037 233.571 17.5193 232.668 17.4908H231.92C219.747 18.0973 213.653 24.4171 213.653 36.4642V61.5027H226.885V36.4642C226.885 31.9075 228.563 29.566 231.921 29.4392H232.668C233.768 29.4816 234.657 29.7494 235.349 30.2153V17.7312L235.348 17.7309ZM252.135 34.7573C253.15 33.1348 254.519 31.8374 256.225 30.878C257.932 29.9467 259.738 29.467 261.642 29.467C263.589 29.467 265.409 29.9467 267.101 30.878C268.808 31.8374 270.162 33.1348 271.192 34.7573C272.208 36.3933 272.715 38.1711 272.715 40.0896C272.715 43.0094 271.615 45.5344 269.415 47.6644C267.228 49.7523 264.646 50.7962 261.642 50.7962C258.665 50.7962 256.084 49.7523 253.912 47.6644C251.711 45.5344 250.611 43.0094 250.611 40.0896C250.611 38.1711 251.119 36.3937 252.135 34.7573ZM272.758 61.5027L285.863 61.6299L285.905 40.0896C285.905 36.873 285.256 33.8684 283.958 31.0899C282.689 28.3816 280.897 25.9834 278.584 23.8954C276.383 21.8498 273.788 20.2839 270.812 19.1839C267.835 18.0838 264.774 17.5332 261.643 17.5332C258.468 17.5332 255.407 18.0973 252.459 19.2259C249.511 20.2982 246.93 21.8494 244.701 23.895C242.444 25.926 240.666 28.3242 239.369 31.0895C238.071 33.8684 237.422 36.873 237.422 40.0892C237.422 44.3634 238.536 48.2423 240.765 51.7128C242.979 55.1267 245.942 57.8207 249.694 59.8097C253.446 61.7705 257.424 62.7438 261.642 62.7438C264.83 62.7438 267.891 62.1801 270.811 61.0515C271.234 60.9101 271.869 60.6423 272.758 60.2617V61.5027ZM331.525 31.9499C330.34 30.9628 329.042 30.2153 327.632 29.7213C326.178 29.2277 324.627 28.9738 323.005 28.9738C319.972 28.9738 317.419 29.9613 315.317 31.9079C313.201 33.8688 312.143 36.2951 312.143 39.1868C312.143 41.4439 312.594 43.4749 313.497 45.2666C314.386 47.0579 315.698 48.4689 317.433 49.5123C319.111 50.5985 321.044 51.1348 323.259 51.1348C326.503 51.1348 329.282 50.091 331.61 48.0316L338.832 57.2004C337.788 58.3008 336.321 59.2884 334.459 60.1349C332.554 60.9953 330.594 61.6299 328.591 62.0391C326.573 62.4483 324.711 62.6598 323.005 62.6598C318.208 62.6598 313.976 61.6588 310.323 59.6413C306.655 57.6103 303.848 54.9297 301.887 51.6292C299.926 48.272 298.953 44.6747 298.953 40.8378C298.953 37.3396 299.546 34.1654 300.731 31.3299C301.944 28.4382 303.608 25.9556 305.724 23.8962C307.826 21.8791 310.379 20.2993 313.37 19.1422C316.346 18.0137 319.563 17.4496 323.005 17.4496C325.812 17.4496 328.562 17.8869 331.229 18.7758C333.937 19.6782 336.307 20.9624 338.381 22.6123L331.525 31.9507V31.9499ZM354.589 19.2262V61.5875H341.399V19.2686L354.589 19.2262ZM354.631 7.23581C354.631 8.56204 354.321 9.73299 353.714 10.7487C353.108 11.7782 352.29 12.5966 351.231 13.2316C350.188 13.8662 349.031 14.191 347.761 14.191C346.491 14.191 345.349 13.8808 344.333 13.274C343.29 12.639 342.457 11.8067 341.85 10.749C341.215 9.64898 340.905 8.47803 340.905 7.23619C340.905 5.9666 341.202 4.81027 341.808 3.76609C342.471 2.69378 343.317 1.84764 344.333 1.24116C345.349 0.648935 346.491 0.338379 347.761 0.338379C349.03 0.338379 350.187 0.648935 351.231 1.24116C352.261 1.84764 353.079 2.69416 353.714 3.76609C354.32 4.8099 354.631 5.9666 354.631 7.23619L354.631 7.23581ZM378.386 17.7312C377.512 17.6041 376.609 17.5197 375.706 17.4912H374.958C362.785 18.0977 356.691 24.4175 356.691 36.4646V61.5031H369.922V36.4646C369.922 31.9079 371.601 29.5664 374.958 29.4396H375.706C376.806 29.482 377.695 29.7498 378.387 30.2156V17.7316L378.386 17.7312ZM413.031 31.9503C411.846 30.9631 410.548 30.2156 409.138 29.7217C407.685 29.2281 406.133 28.9742 404.511 28.9742C401.478 28.9742 398.925 29.9617 396.823 31.9083C394.707 33.8691 393.649 36.2954 393.649 39.1872C393.649 41.4443 394.1 43.4753 395.003 45.267C395.892 47.0583 397.204 48.4693 398.939 49.5127C400.618 50.5989 402.55 51.1352 404.765 51.1352C408.009 51.1352 410.788 50.0914 413.116 48.0319L420.338 57.2008C419.294 58.3012 417.828 59.2887 415.965 60.1353C414.061 60.9957 412.1 61.6303 410.097 62.0395C408.08 62.4487 406.218 62.6602 404.511 62.6602C399.715 62.6602 395.483 61.6591 391.829 59.6417C388.161 57.6107 385.354 54.9301 383.394 51.6296C381.433 48.2724 380.46 44.6751 380.46 40.8382C380.46 37.34 381.052 34.1658 382.237 31.3303C383.45 28.4386 385.115 25.956 387.231 23.8965C389.332 21.8794 391.886 20.2997 394.876 19.1426C397.853 18.014 401.069 17.4499 404.511 17.4499C407.318 17.4499 410.069 17.8873 412.735 18.7762C415.443 19.6786 417.813 20.9628 419.887 22.6127L413.031 31.951V31.9503ZM440.679 50.7965C437.322 50.6836 435.643 48.356 435.643 43.814V19.1842H422.412V43.814C422.412 55.8044 428.506 62.1239 440.679 62.787H441.427C453.6 62.1239 459.695 55.8048 459.695 43.814V19.1842H446.463V43.814C446.463 48.3564 444.784 50.6836 441.426 50.7965H440.679H440.679ZM468.455 48.2007C471.065 50.8104 474.267 52.1224 478.033 52.1224C481.983 52.1224 483.944 50.9657 483.944 48.6523C483.944 47.439 482.857 46.5362 480.685 45.9578C479.133 45.6053 476.693 44.9845 473.322 44.1099C470.599 43.3901 468.3 42.0643 466.423 40.132C464.576 38.2413 463.659 35.3218 463.659 31.372C463.659 28.3392 464.421 25.7857 465.93 23.6839C467.467 21.5959 469.471 20.0446 471.925 19.0571C474.422 18.0414 477.172 17.5336 480.149 17.5336C481.828 17.5336 483.535 17.7594 485.269 18.2387C487.145 18.8174 488.824 19.5225 490.306 20.3829C491.942 21.2857 493.367 22.3156 494.608 23.4442L487.343 30.6665C485.213 29.0724 482.9 28.2822 480.389 28.2822C477.384 28.2822 475.889 29.1144 475.889 30.7932C475.889 32.3167 477.003 33.3748 479.232 33.9813C481.686 34.6444 484.155 35.2647 486.638 35.8431C489.36 36.5205 491.632 37.79 493.451 39.6376C495.299 41.5137 496.216 44.4621 496.216 48.4824C496.216 51.487 495.426 54.0825 493.818 56.2548C492.224 58.4553 490.094 60.0917 487.414 61.1779C484.748 62.3061 481.983 62.8702 479.105 62.8702C476.721 62.8702 474.549 62.6729 472.63 62.2919C470.698 61.9254 468.892 61.3186 467.214 60.4721C465.479 59.6117 463.659 58.4692 461.755 57.0444L468.455 48.1996V48.2007Z" fill="#FEFEFE"/>
</svg>
