<svg width="497" height="63" viewBox="0 0 497 63" fill="none" xmlns="http://www.w3.org/2000/svg">
<path fill-rule="evenodd" clip-rule="evenodd" d="M83.833 31.779C81.744 29.69 78.8571 28.3975 75.6688 28.3975C72.4805 28.3975 69.5936 29.69 67.5046 31.779C65.4156 33.868 64.123 36.7549 64.123 39.9432C64.123 43.1315 65.4156 46.0184 67.5046 48.1071C69.5936 50.196 72.4805 51.4886 75.6688 51.4886C78.8571 51.4886 81.7441 50.196 83.8327 48.1071C85.9216 46.0184 87.2142 43.1315 87.2142 39.9432C87.2142 36.7553 85.9216 33.868 83.833 31.779Z" fill="#D03438"/>
<path fill-rule="evenodd" clip-rule="evenodd" d="M14.119 40.1312C14.119 43.0794 15.219 45.6184 17.42 47.7346C19.5921 49.8648 22.1735 50.9226 25.15 50.9226C28.1546 50.9226 30.7363 49.8648 32.9225 47.7346C35.123 45.6184 36.2231 43.0794 36.2231 40.1312C36.2231 38.2128 35.7156 36.449 34.6995 34.8415C33.6701 33.2188 32.3159 31.9213 30.6088 30.9623C28.9162 30.0028 27.0961 29.509 25.1497 29.509C23.2452 29.509 21.4399 30.0028 19.7328 30.9623C18.0258 31.9217 16.6576 33.2191 15.6418 34.8415C14.6265 36.4494 14.1182 38.2128 14.1182 40.1312H14.119ZM75.668 24.6178C79.8997 24.6178 83.7313 26.3335 86.5043 29.1066C89.277 31.8797 90.9928 35.7113 90.9928 39.9429C90.9928 44.1738 89.2774 48.0058 86.5039 50.7789C83.7309 53.5523 79.8989 55.2677 75.668 55.2677C71.4363 55.2677 67.6048 53.552 64.8317 50.7789C62.0582 48.0058 60.3429 44.1738 60.3429 39.9429C60.3429 35.7113 62.0586 31.8797 64.8317 29.1066C67.6048 26.3335 71.4363 24.6178 75.668 24.6178ZM0.929688 2.60818L14.119 2.5662V20.0155L15.0644 19.5923L16.0094 19.1835C18.9859 18.1114 22.0328 17.5752 25.1504 17.5752C28.2816 17.5752 31.3429 18.1111 34.3194 19.1835C37.2112 20.2556 39.821 21.8356 42.1338 23.9375C44.4195 25.9969 46.1968 28.4089 47.4663 31.174C48.7638 33.9528 49.4127 36.9433 49.4127 40.1316C49.4127 43.4183 48.7782 46.4232 47.5087 49.1456C46.2388 51.868 44.4474 54.2943 42.1338 56.4245C39.7922 58.5403 37.1825 60.1199 34.3194 61.1784C31.4272 62.3065 28.3663 62.8707 25.1504 62.8707C20.9324 62.8707 16.9544 61.8689 13.2023 59.8942C9.45012 57.9334 6.48759 55.2393 4.27305 51.7829C2.07213 48.3976 0.95805 44.617 0.929688 40.4273V2.60818ZM75.693 62.8703C71.4749 62.8703 67.497 61.8686 63.7448 59.8938C59.9927 57.905 57.0301 55.1966 54.8156 51.7545C52.5867 48.2701 51.4722 44.3909 51.4722 40.0885C51.4722 36.8722 52.1212 33.8673 53.419 31.0886C54.7165 28.2954 56.4939 25.8975 58.7512 23.852C61.0364 21.7925 63.6318 20.1982 66.5516 19.0981C69.5281 17.998 72.575 17.4474 75.6926 17.4474C78.8238 17.4474 81.885 17.9976 84.8616 19.0981C87.7534 20.1418 90.3631 21.7218 92.676 23.8096C94.9616 25.9115 96.739 28.3234 98.0085 31.0886C99.306 33.8673 99.9549 36.8718 99.9549 40.0885C99.9549 43.3751 99.3204 46.3801 98.0509 49.1025C96.781 51.8532 94.9896 54.2935 92.676 56.4237C90.3344 58.5116 87.7247 60.0916 84.8616 61.1777C81.9694 62.3057 78.9085 62.87 75.6926 62.87L75.693 62.8703ZM134.587 31.9493C133.402 30.9619 132.104 30.2146 130.693 29.7204C129.24 29.2269 127.688 28.9727 126.066 28.9727C123.034 28.9727 120.48 29.9605 118.378 31.9069C116.262 33.8677 115.204 36.294 115.204 39.1858C115.204 41.4431 115.656 43.4742 116.559 45.2656C117.447 47.057 118.759 48.4679 120.494 49.5116C122.173 50.5977 124.106 51.1343 126.32 51.1343C129.564 51.1343 132.343 50.0906 134.671 48.0311L141.893 57.1997C140.85 58.3002 139.383 59.2876 137.521 60.1343C135.616 60.9946 133.655 61.6296 131.653 62.0384C129.635 62.4475 127.774 62.6589 126.066 62.6589C121.27 62.6589 117.038 61.6575 113.385 59.6404C109.717 57.6093 106.91 54.9289 104.949 51.6282C102.989 48.2709 102.015 44.6738 102.015 40.8369C102.015 37.3385 102.608 34.1646 103.793 31.3291C105.005 28.4372 106.67 25.9546 108.786 23.8951C110.888 21.878 113.441 20.298 116.432 19.1412C119.408 18.0127 122.625 17.4485 126.067 17.4485C128.874 17.4485 131.625 17.8857 134.291 18.7747C136.999 19.6774 139.369 20.9613 141.443 22.6112L134.587 31.9496L134.587 31.9493ZM154.053 34.7568C155.069 33.1341 156.437 31.8366 158.144 30.8775C159.851 29.9461 161.657 29.4666 163.561 29.4666C165.508 29.4666 167.327 29.9461 169.02 30.8775C170.727 31.837 172.081 33.1344 173.111 34.7568C174.127 36.3931 174.635 38.1705 174.635 40.0889C174.635 43.0091 173.535 45.5337 171.334 47.6639C169.147 49.7518 166.566 50.7955 163.562 50.7955C160.585 50.7955 158.003 49.7518 155.831 47.6639C153.631 45.5337 152.53 43.0091 152.53 40.0889C152.53 38.1705 153.038 36.3931 154.054 34.7568H154.053ZM174.677 61.5021L187.781 61.6292L187.823 40.0889C187.823 36.8726 187.175 33.8677 185.877 31.0889C184.608 28.3805 182.816 25.9826 180.503 23.8947C178.302 21.8492 175.706 20.2832 172.73 19.1832C169.753 18.0831 166.692 17.5325 163.561 17.5325C160.387 17.5325 157.326 18.0967 154.378 19.2251C151.43 20.2972 148.848 21.8488 146.62 23.8943C144.362 25.9255 142.585 28.3234 141.288 31.0886C139.99 33.8673 139.341 36.8718 139.341 40.0885C139.341 44.3629 140.455 48.2418 142.684 51.7122C144.899 55.1259 147.861 57.8203 151.613 59.8091C155.366 61.7699 159.344 62.7433 163.562 62.7433C166.75 62.7433 169.811 62.1794 172.731 61.051C173.153 60.9095 173.788 60.6418 174.677 60.261V61.5021H174.677ZM211.579 17.7302C210.704 17.6032 209.801 17.5185 208.898 17.4901H208.151C195.977 18.0967 189.883 24.4166 189.883 36.4634V61.5021H203.115V36.4634C203.115 31.9069 204.793 29.5653 208.15 29.4382H208.898C209.998 29.4806 210.887 29.7487 211.578 30.2142V17.7302H211.579ZM235.348 17.7302C234.473 17.6032 233.571 17.5185 232.667 17.4901H231.92C219.746 18.0967 213.652 24.4166 213.652 36.4634V61.5021H226.884V36.4634C226.884 31.9069 228.562 29.5653 231.919 29.4382H232.667C233.768 29.4806 234.656 29.7487 235.348 30.2142V17.7302H235.348ZM252.134 34.7568C253.15 33.1341 254.518 31.8366 256.225 30.8775C257.932 29.9461 259.738 29.4666 261.642 29.4666C263.589 29.4666 265.408 29.9461 267.101 30.8775C268.808 31.837 270.162 33.1344 271.192 34.7568C272.208 36.3931 272.716 38.1705 272.716 40.0889C272.716 43.0091 271.615 45.5337 269.415 47.6639C267.228 49.7518 264.647 50.7955 261.643 50.7955C258.666 50.7955 256.084 49.7518 253.912 47.6639C251.711 45.5337 250.611 43.0091 250.611 40.0889C250.611 38.1705 251.119 36.3931 252.135 34.7568H252.134ZM272.758 61.5021L285.862 61.6292L285.904 40.0889C285.904 36.8726 285.256 33.8677 283.958 31.0889C282.689 28.3805 280.897 25.9826 278.584 23.8947C276.383 21.8492 273.787 20.2832 270.811 19.1832C267.834 18.0831 264.773 17.5325 261.642 17.5325C258.468 17.5325 255.407 18.0967 252.459 19.2251C249.511 20.2972 246.929 21.8488 244.701 23.8943C242.443 25.9255 240.666 28.3234 239.369 31.0886C238.071 33.8673 237.422 36.8718 237.422 40.0885C237.422 44.3629 238.536 48.2418 240.765 51.7122C242.98 55.1259 245.942 57.8203 249.694 59.8091C253.447 61.7699 257.424 62.7433 261.643 62.7433C264.83 62.7433 267.892 62.1794 270.811 61.051C271.234 60.9095 271.869 60.6418 272.758 60.261V61.5021H272.758ZM331.524 31.9493C330.34 30.9619 329.042 30.2146 327.631 29.7204C326.178 29.2269 324.626 28.9727 323.004 28.9727C319.971 28.9727 317.418 29.9605 315.316 31.9069C313.2 33.8677 312.142 36.294 312.142 39.1858C312.142 41.4431 312.593 43.4742 313.497 45.2656C314.385 47.057 315.697 48.4679 317.432 49.5116C319.111 50.5977 321.044 51.1343 323.258 51.1343C326.502 51.1343 329.281 50.0906 331.609 48.0311L338.831 57.1997C337.788 58.3002 336.321 59.2876 334.459 60.1343C332.554 60.9946 330.593 61.6296 328.591 62.0384C326.573 62.4475 324.711 62.6589 323.004 62.6589C318.208 62.6589 313.976 61.6575 310.323 59.6404C306.655 57.6093 303.848 54.9289 301.887 51.6282C299.926 48.2709 298.953 44.6738 298.953 40.8369C298.953 37.3385 299.546 34.1646 300.73 31.3291C301.943 28.4372 303.608 25.9546 305.724 23.8951C307.826 21.878 310.379 20.298 313.37 19.1412C316.346 18.0127 319.563 17.4485 323.005 17.4485C325.812 17.4485 328.563 17.8857 331.229 18.7747C333.937 19.6774 336.307 20.9613 338.381 22.6112L331.525 31.9496L331.524 31.9493ZM354.588 19.2255V61.5868H341.399V19.2679L354.588 19.2255ZM354.631 7.23503C354.631 8.56125 354.32 9.73205 353.714 10.7478C353.107 11.7772 352.289 12.5955 351.231 13.2305C350.188 13.865 349.03 14.1899 347.761 14.1899C346.491 14.1899 345.349 13.8794 344.333 13.2728C343.29 12.6379 342.457 11.8055 341.851 10.7478C341.216 9.64772 340.905 8.47654 340.905 7.23503C340.905 5.96553 341.202 4.8091 341.808 3.76498C342.471 2.69288 343.317 1.84655 344.333 1.23997C345.349 0.647766 346.491 0.336914 347.761 0.336914C349.03 0.336914 350.187 0.647766 351.231 1.23997C352.261 1.84655 353.079 2.69288 353.714 3.76498C354.32 4.80872 354.631 5.96553 354.631 7.23503ZM378.386 17.7302C377.511 17.6032 376.609 17.5185 375.705 17.4901H374.958C362.784 18.0967 356.69 24.4166 356.69 36.4634V61.5021H369.922V36.4634C369.922 31.9069 371.6 29.5653 374.957 29.4382H375.705C376.806 29.4806 377.694 29.7487 378.386 30.2142V17.7302H378.386ZM413.031 31.9493C411.846 30.9619 410.548 30.2146 409.138 29.7204C407.684 29.2269 406.133 28.9727 404.511 28.9727C401.478 28.9727 398.924 29.9605 396.823 31.9069C394.706 33.8677 393.649 36.294 393.649 39.1858C393.649 41.4431 394.1 43.4742 395.003 45.2656C395.892 47.057 397.203 48.4679 398.938 49.5116C400.617 50.5977 402.55 51.1343 404.764 51.1343C408.009 51.1343 410.787 50.0906 413.115 48.0311L420.338 57.1997C419.294 58.3002 417.827 59.2876 415.965 60.1343C414.061 60.9946 412.1 61.6296 410.097 62.0384C408.079 62.4475 406.218 62.6589 404.511 62.6589C399.714 62.6589 395.482 61.6575 391.829 59.6404C388.161 57.6093 385.354 54.9289 383.394 51.6282C381.433 48.2709 380.459 44.6738 380.459 40.8369C380.459 37.3385 381.052 34.1646 382.237 31.3291C383.45 28.4372 385.115 25.9546 387.23 23.8951C389.332 21.878 391.886 20.298 394.876 19.1412C397.853 18.0127 401.069 17.4485 404.511 17.4485C407.318 17.4485 410.069 17.8857 412.735 18.7747C415.443 19.6774 417.813 20.9613 419.887 22.6112L413.031 31.9496L413.031 31.9493ZM440.679 50.7955C437.322 50.6824 435.644 48.3552 435.644 43.8127V19.1832H422.412V43.8127C422.412 55.8032 428.506 62.1227 440.68 62.7856H441.427C453.601 62.1227 459.695 55.8032 459.695 43.8127V19.1832H446.464V43.8127C446.464 48.3548 444.785 50.6824 441.428 50.7955H440.68H440.679ZM468.455 48.1998C471.064 50.8095 474.267 52.1214 478.033 52.1214C481.983 52.1214 483.944 50.9649 483.944 48.6513C483.944 47.4382 482.857 46.5351 480.685 45.9569C479.133 45.6044 476.693 44.9835 473.322 44.1092C470.599 43.3895 468.3 42.0637 466.424 40.1312C464.576 38.2408 463.659 35.321 463.659 31.371C463.659 28.3385 464.42 25.7848 465.93 23.683C467.468 21.5951 469.471 20.0435 471.925 19.0561C474.422 18.0407 477.173 17.5325 480.149 17.5325C481.828 17.5325 483.535 17.7582 485.269 18.2377C487.146 18.8163 488.825 19.5216 490.305 20.3819C491.942 21.285 493.366 22.3147 494.608 23.4432L487.343 30.6654C485.213 29.071 482.9 28.2814 480.389 28.2814C477.384 28.2814 475.889 29.1138 475.889 30.7925C475.889 32.3161 477.003 33.3738 479.232 33.9804C481.686 34.6433 484.155 35.2639 486.638 35.8421C489.36 36.5194 491.632 37.7889 493.451 39.6366C495.299 41.5127 496.216 44.4612 496.216 48.4815C496.216 51.4864 495.426 54.0818 493.818 56.2539C492.224 58.4545 490.094 60.0908 487.414 61.1773C484.748 62.3053 481.983 62.8696 479.105 62.8696C476.722 62.8696 474.549 62.6722 472.631 62.2914C470.698 61.9249 468.893 61.318 467.214 60.4716C465.479 59.6113 463.659 58.4689 461.755 57.0439L468.455 48.199L468.455 48.1998Z" fill="#373435"/>
</svg>
