<?xml version="1.0" encoding="UTF-8"?>
<!DOCTYPE svg PUBLIC "-//W3C//DTD SVG 1.1//EN" "http://www.w3.org/Graphics/SVG/1.1/DTD/svg11.dtd">
<!-- Creator: CorelDRAW 2018 (64 Bit Versão de avaliação) -->
<svg xmlns="http://www.w3.org/2000/svg" xml:space="preserve" width="177.063mm" height="45.9948mm" version="1.1" style="shape-rendering:geometricPrecision; text-rendering:geometricPrecision; image-rendering:optimizeQuality; fill-rule:evenodd; clip-rule:evenodd"
viewBox="0 0 17842.66 4634.89"
 xmlns:xlink="http://www.w3.org/1999/xlink">
 <defs>
  <style type="text/css">
   <![CDATA[
    .str0 {stroke:#D03438;stroke-width:20.15;stroke-miterlimit:22.9256}
    .fil1 {fill:#FEFEFE}
    .fil0 {fill:#D03438}
    .fil2 {fill:#FEFEFE;fill-rule:nonzero}
   ]]>
  </style>
 </defs>
 <g id="Camada_x0020_1">
  <metadata id="CorelCorpID_0Corel-Layer"/>
  <g id="_2661271933776">
   <g>
    <rect class="fil0 str0" x="10.07" y="10.08" width="3552.73" height="4614.74" rx="76.87" ry="116.49"/>
    <path class="fil1" d="M1139.12 2022.29c7.58,-19.58 7.43,-31.11 19.66,-56.36 9.65,-19.94 83.99,-97.27 105.27,-121.62 3.63,-3.77 2.41,-1.71 4.46,-6.44 -10.58,2.75 -25.65,10.29 -36.56,14.29 -38.05,14.01 -91.7,22.29 -134.21,22.29 -31.32,0 -33.9,-0.12 -62.56,18.92l-29.36 21.75c-2.67,2.16 -2.99,3.34 -5.59,5.46l-22.55 20.24c-9.31,9.28 -33.67,34.46 -40.52,43.7 -2.61,3.53 -2.05,2.25 -4.65,5.03l-11.68 14.56c-1.41,1.66 -0.8,0.75 -2.55,2.96 -3.1,3.92 -6.16,9.13 -9.71,12.28 -22.41,4.64 -76.42,-8.63 -95.35,-16.45 -46.96,-19.41 -71.47,-18.71 -121.45,-18.71 -27.83,0 -66.22,4.66 -90.78,12.57 29.14,4.44 46.12,3.44 79.31,10.68 24.28,5.31 46.3,13.72 65.27,24.51 9.02,5.13 17.25,12.15 25.68,18.5l25.84 19.75c14.81,11.16 28.46,23.31 44.11,33.2 1.94,1.23 0.66,0.04 3.35,2.18 0.32,0.26 1.21,1.04 1.49,1.31 1.95,1.89 0.3,-0.27 1.98,2.32 -5.82,6.54 -26.64,15.21 -40.76,31.22 -3.06,3.49 -6.45,5.13 -9.44,8.52 -34.83,39.47 -46.71,87.69 -55.39,142.02 -13.92,86.97 -7.3,128.05 -12.29,203.55 -1.82,27.46 -3.39,40.03 -24.77,56.33l-14.11 13.52c-19.83,17.14 -31.46,40.45 -43.42,64.34 -16.1,32.17 -26.64,74.2 -31.92,113.01 -5.87,43.2 -5.09,90.03 -9.55,134.03 -3.11,30.88 -7.27,61.87 -16.18,91.56 -2.44,8.11 -9.3,21.14 -10.22,27.43 15.85,15.96 14.18,18.01 35.92,34.11 26.84,19.87 58.34,31.14 95.25,31.14 10.36,0 19.22,-2.61 28.16,-3.02 11.65,-0.52 71.85,38.2 165.08,-4.7 18.19,-8.36 53.63,-2.35 53.63,-56.54 0,-31.21 -30.9,-77 -49.72,-103.25 -6.28,-8.76 -12.86,-15.12 -20.91,-21.87 -5.36,-4.49 -9.52,-9.25 -17.43,-11.88 -8.75,0.57 -46.48,30.34 -101.2,28.35 2.85,-5.64 6.02,-5.24 12.08,-8.12 4.67,-2.21 8.49,-3.98 13.1,-6.29 24.18,-12.11 52.56,-26.89 72.95,-42.39 0.84,-14.08 1.38,-27.52 1.92,-41.74 0.58,-15.23 4.93,-20.61 12.18,-31.69 8.7,-13.25 19.96,-24.26 29.67,-36.64l24.61 -29.23c2.72,-3.68 2.58,-2.71 5.35,-5.7 2.09,-2.26 2.81,-4.2 4.65,-6.4 2.07,-2.49 3.54,-2.94 5.65,-5.41 2.31,-2.7 2.15,-3.76 4.63,-6.4 2.66,-2.83 3.24,-2.35 5.67,-5.39 2.55,-3.18 1.82,-3.44 4.74,-6.31l16.13 -16.99c4.6,-4.25 6.06,-8.35 9.95,-12.16 16.49,-16.13 32.3,-33.44 50.02,-48.01l16.58 -16.58c3.4,-4.3 5.99,-8.09 9.32,-12.79 40.04,-56.23 47.39,-138.19 45.07,-209.02l-6.18 -94.1c5.64,5.13 9.13,32.73 10.54,40.03 13.01,66.93 25,138.76 10.34,206.34 48.27,0 96.03,10.86 133.13,32.64 5.22,3.06 7.48,4.57 12.41,8.32 4.5,3.42 7.69,6.36 11.32,9.38l71.32 52.96c15.81,11.53 32.61,21.51 49.53,33.29 32.46,22.63 68.27,42.99 103.56,62.23 24.18,13.18 35.29,17.62 66.58,17.62 33.86,0 175.87,-14.1 203.19,-24.89l-3.81 -1.85c-26.81,-9.56 -164.33,-37.5 -170.29,-43.71 -6.7,-6.97 -9.04,-79.17 -9.04,-93.9 0,-92.19 24.94,-172.17 77.82,-240.42l19.79 -21.63c3.19,-3.28 10.04,-11.25 13.61,-14.04l15.23 -12.36c2.56,-2.14 4.98,-3.96 7.75,-6.06 3.47,-2.61 5.47,-4.72 10.21,-5.28 -3.78,7 -10.99,12.73 -15.96,18.85 -78.46,96.95 -117.51,215.55 -83.61,340.28 2.21,8.13 2.02,7.29 9.88,9.48 50.79,14.22 101.31,30.69 151.69,45.8l241.79 74.69c-17.87,0.98 -87.43,-18.29 -98.22,-16.65 -2.9,0.44 -1.4,0.03 -3.13,1.1 12.32,6.35 78.66,61.39 91.94,73.79 -8.47,-2.25 -92.57,-61.43 -104.09,-69.32 -4.22,-2.89 -6.64,-6.4 -13.11,-5.26 -6.63,1.16 -22.49,7.06 -29.12,9.71 -15.64,6.27 -31.55,13.29 -42.64,25.06 -2.61,2.77 -3.06,2.09 -3.06,7.65 0,35.95 6.32,100.68 29.26,127.85 5.59,6.62 8.37,10.38 14.98,16.75 16.25,15.67 34.91,29.26 54.81,40.49 21.55,12.17 6.7,-2.87 24.98,21.97l7.3 9.27c9.11,11.01 22.79,21.04 35.56,27.95 29.03,15.72 61.19,19.94 94.31,18.44 5.29,-16.78 48.62,-102.11 59.85,-126.37 4.08,-8.82 9.15,-9.44 18.03,-13.65l41.89 -20.37c15.07,-7.54 23.66,-15.61 35.45,-26.68 3.22,-3.02 2.97,-4.59 7.09,-8.09 5.62,-4.79 4.04,-3.25 8.02,-8.53 33.57,-44.42 54.44,-90.78 19.62,-144.59 -11.95,-18.48 -17.34,-17.73 -27.36,-29.23l-178.9 -160.8c-4.42,-5.05 -5.32,-4.87 -10.37,-8.94 -4.14,-3.33 -5.35,-6.33 -9.72,-9.64l-49.81 -45.57c7.9,1.21 44.01,23.56 53,28.58l65.92 37.72c7.65,4.27 7.31,3.1 13.34,-1.65 14.85,-11.71 32.67,-23.48 49.95,-32.99 6.82,-3.76 23.43,-9.76 27.29,-13.64 -5.23,-12.87 -58.75,-143.9 -60.47,-154.79 6.21,3.38 30.16,49.39 33.86,56.16l64.82 114.7c18.71,31.24 36.1,49.91 56.22,77.75l14.46 18.66c15.92,19.73 29.16,34.13 58.26,43.95 40.71,13.75 158.65,11.43 213.08,11 13.5,-0.11 21.64,6.38 32.47,12.69 24.08,14.02 47.31,27.21 69.61,42.23l12.71 9.4c8.43,7.99 11.37,17.77 30.08,12.65 35.1,-9.62 68.44,-37.85 96.7,-59.38 8.24,-6.28 16.67,-13.98 25.94,-19.65 9.86,-6.04 23.85,-7.14 14.62,-25l-9.95 -13.5c-6.75,-7.73 -15.86,-13.95 -26.36,-17.87l-65.14 -24.62c-9.44,-3.57 -26.95,-6.92 -30.02,-15.79 21.14,-13.68 151.9,45.33 176.86,45.33 24.61,0 34.05,-14.23 42.08,-35.01 3.37,-8.71 27.16,-31.32 31.35,-40.14 18.41,-38.79 -4.07,-52.49 -1.3,-68.84 6.31,-37.19 8.26,-88.04 -16.01,-120.26 -4.53,-6.02 -8.29,-7.44 -13.9,-12.62l19.58 -20.72c3.94,-3.94 3.53,-2.42 6.83,-6.98l22.59 -32.67c14.48,-23.07 24.56,-49.63 33.09,-77.37 32.24,-104.75 28.59,-225.79 17.28,-334.71 -7.07,13.67 -14.1,35.46 -20.8,50.92 -26.68,61.58 -55.03,108.1 -94.47,158.19l-39.99 40.12c-19.14,15.21 -37.97,28.47 -60.96,38.49 -14.42,6.28 -41.71,15.99 -59.04,12.91 -1.16,-5.75 8.03,-65.8 9.35,-78.04 2.58,-23.88 6.06,-59.18 3.24,-82.92 -0.27,-0.12 -0.78,-0.47 -0.9,-0.16l-34.43 24.97c-11.63,8.3 -24.14,16.99 -37.45,24.71 -23.6,13.69 -61.88,34.28 -95.08,30.18l-40.25 -46.35c-5.81,-8.44 -14.13,-14.69 -20.5,-22.33 -4.55,-5.48 -4.54,-6.96 -10.24,-11.82 -7.89,-6.73 -12.7,-15.47 -20.56,-22.25 -5.79,-4.99 -6.19,-6.01 -10.97,-11.11l-18.07 -15.1c-2.73,-2.13 -3.37,-2.79 -6.14,-4.89 -19.81,-15 -33.99,-20.89 -53.63,-33.09 10.5,-41.06 36.28,-97.9 34.41,-142.26 -29.48,6.31 -71.92,33.36 -96.58,50.52l-33.19 26.19c-11.1,8.95 -19.05,19.89 -30.3,29.08l-22.61 27.08c-21.1,27.93 -38.73,58.39 -50.42,91.84 -1.36,3.9 -2.29,7.54 -4.99,10.47 -1.65,-20.86 24.99,-116.14 39.99,-142.63 2.35,-4.13 3.07,-4.35 4.7,-8.69l-46.35 -38.95c-8.22,-6.69 -15.67,-12.5 -23.81,-19l-37.25 -27.66c-90.26,-67.67 -236.39,-148.51 -348.61,-148.51 -92.53,0 -106.38,20.78 -172.31,59.7 -15.79,9.32 -30.34,18.33 -45.68,27.54 -117.37,70.59 -248.93,139.71 -356.55,220.61l-86.48 75.08c-7.63,6.74 -18.23,21.64 -23.91,29.95 -8.84,12.93 -15.63,27.08 -21.94,41.46 -3.16,7.23 0.55,3.69 -4.32,5.58zm1378.14 36.34c-5.36,-5.06 -10.63,-1.91 -11.99,4.5 -2.75,14.99 -5.5,29.98 -8.25,44.98 -0.46,7.22 4.47,12.27 13.49,15.74 25,11.25 49.99,22.49 74.98,33.74 7.63,3.55 14.99,-4.5 9,-14.25 -25.75,-28.24 -51.49,-56.47 -77.23,-84.72zm-701.94 646.39c-33.7,4.81 -92.45,8.76 -134.93,20.42 -29.37,15.07 -135.01,103.55 -157.49,170.03 -6.58,19 -6.92,37.98 -1.5,56.99 64.58,79.13 151.34,99.12 245.94,98.22 64.59,-4.54 142.61,-15.22 98.98,-97.46 -71.92,-40.27 -57.4,-168.09 -38.99,-235.44 0.42,-8.7 -3.44,-13.07 -12,-12.75zm-800.43 -67.66c47.48,-32.74 83.72,-83.1 113.22,-128.59 118.61,8.44 188.02,94.66 288.68,169.45 -32.25,11.5 -87.22,30.51 -145.46,30 10.26,118.96 -37.74,186.41 -89.98,293.92 -8.88,9.12 -23.85,12.13 -45.73,8.25 -95.66,-21.97 -158.27,-79.49 -173.95,-187.45 -1.24,-13.72 4.64,-21.33 16.49,-24.74 19.25,-5.74 40,-6.26 57.74,-17.25 10.06,-7.55 19.64,-17.48 15.74,-29.23 -14,-39.25 -45.24,-73.61 -36.74,-114.35zm1518.69 -757.29c44.28,-15.52 85.68,-38.23 125.96,-63.74 9.62,-3.02 13.63,-1.21 11.26,6.75 -14.15,45.82 -32.09,91.15 -62.24,134.96 -30.05,-34.36 -53.96,-58.6 -74.98,-77.98z"/>
   </g>
   <path class="fil2" d="M10926.67 3670.27l-29.47 0 0 -260.36 -59.74 0 0 -28.43 148.95 0 0 28.43 -59.75 0 0 260.36zm119.56 -159.22l125.81 0 0 28.43 -125.81 0 0 102.77 125.81 0 0 28.02 -155.27 0 0 -288.79 155.27 0 0 28.43 -125.81 0 0 101.14zm420.33 -54.84c-13.39,-18.01 -28.39,-31.21 -45.02,-39.66 -16.54,-8.46 -35.48,-12.73 -56.72,-12.73 -33.23,0 -61.71,11.91 -85.34,35.74 -23.64,23.82 -35.48,52.12 -35.48,84.96 0,34.93 11.78,64.37 35.27,88.27 23.49,23.96 51.97,35.94 85.55,35.94 20.69,0 39.41,-4.2 56.1,-12.53 16.7,-8.39 31.21,-20.85 43.55,-37.44l34.92 0c-13.67,24.58 -32.04,43.59 -55.04,57.07 -23.01,13.4 -48.81,20.1 -77.42,20.1 -43.98,0 -80.65,-14.48 -110.03,-43.39 -29.38,-28.97 -44.05,-65.12 -44.05,-108.45 0,-20.23 4,-39.4 11.92,-57.54 7.93,-18.08 19.58,-34.39 34.94,-48.94 14.23,-13.75 30.22,-24.16 47.97,-31.21 17.74,-7.1 36.95,-10.63 57.64,-10.63 29.73,0 56.45,6.97 80.22,20.99 23.77,14.02 42.57,33.85 56.38,59.43l-35.35 0zm276.45 179.53l-3.37 -254.26 29.03 0 0 288.79 -35.35 0 -164.09 -254.67 3.37 254.67 -29.03 0 0 -288.79 35.34 0 164.1 254.26zm97.63 -111.16c0,35.2 11.84,64.65 35.55,88.48 23.69,23.76 52.94,35.68 87.73,35.68 33.94,0 62.62,-12.05 86.04,-36.09 23.42,-24.09 35.14,-53.68 35.14,-88.88 0,-32.77 -12.06,-61.07 -36.19,-84.76 -24.06,-23.76 -53.09,-35.61 -87.1,-35.61 -13.82,0 -27.15,2.31 -39.9,6.84 -12.84,4.53 -24.61,11.31 -35.49,20.1 -14.23,11.64 -25.44,25.86 -33.58,42.65 -8.14,16.79 -12.2,33.99 -12.2,51.58zm-30.72 -0.47c0,-20.1 4,-39.26 11.99,-57.54 8.07,-18.21 19.64,-34.52 34.86,-48.94 14.65,-13.88 30.79,-24.31 48.39,-31.34 17.59,-6.97 36.67,-10.5 57.22,-10.5 20.9,0 40.33,3.53 58.21,10.63 17.88,7.04 34.21,17.6 49,31.61 15.23,14.42 26.65,30.53 34.29,48.34 7.66,17.87 11.51,37.09 11.51,57.74 0,20.45 -3.3,39.27 -9.89,56.39 -6.53,17.13 -16.42,32.7 -29.53,46.71 -15.22,16.11 -32.4,28.24 -51.61,36.43 -19.15,8.19 -39.98,12.31 -62.42,12.31 -42.99,0 -79.09,-14.55 -108.28,-43.72 -29.16,-29.11 -43.75,-65.2 -43.75,-108.12zm481.01 146.16l-134.65 0 0 -288.79 29.46 0 0 260.76 105.19 0 0 28.02zm39.33 -145.68c0,35.2 11.85,64.65 35.56,88.48 23.69,23.76 52.94,35.68 87.73,35.68 33.93,0 62.62,-12.05 86.04,-36.09 23.42,-24.09 35.13,-53.68 35.13,-88.88 0,-32.77 -12.05,-61.07 -36.18,-84.76 -24.06,-23.76 -53.1,-35.61 -87.11,-35.61 -13.81,0 -27.14,2.31 -39.89,6.84 -12.84,4.53 -24.62,11.31 -35.49,20.1 -14.23,11.64 -25.45,25.86 -33.59,42.65 -8.14,16.79 -12.2,33.99 -12.2,51.58zm-30.71 -0.47c0,-20.1 3.99,-39.26 11.99,-57.54 8.07,-18.21 19.63,-34.52 34.86,-48.94 14.65,-13.88 30.79,-24.31 48.38,-31.34 17.6,-6.97 36.67,-10.5 57.23,-10.5 20.9,0 40.33,3.53 58.2,10.63 17.89,7.04 34.22,17.6 49.01,31.61 15.23,14.42 26.65,30.53 34.29,48.34 7.65,17.87 11.51,37.09 11.51,57.74 0,20.45 -3.31,39.27 -9.89,56.39 -6.53,17.13 -16.42,32.7 -29.53,46.71 -15.22,16.11 -32.4,28.24 -51.62,36.43 -19.14,8.19 -39.97,12.31 -62.41,12.31 -42.99,0 -79.09,-14.55 -108.28,-43.72 -29.16,-29.11 -43.75,-65.2 -43.75,-108.12zm450.69 7.65l185.98 0c-2.45,42.04 -18.16,76.57 -47.06,103.64 -28.88,27.02 -64.37,40.55 -106.38,40.55 -43.12,0 -79.24,-14.55 -108.34,-43.59 -29.1,-29.11 -43.69,-65.19 -43.69,-108.25 0,-20.23 4,-39.4 11.92,-57.54 7.93,-18.08 19.58,-34.39 34.93,-48.94 14.79,-14.15 31.14,-24.64 49.09,-31.54 17.96,-6.84 37.88,-10.3 59.83,-10.3 29.03,0 55.05,6.77 78.12,20.38 23.15,13.54 41.66,32.9 55.6,58.02l-36.18 0c-14.1,-17.33 -29.24,-30.13 -45.31,-38.38 -16.13,-8.26 -34.08,-12.39 -53.99,-12.39 -34.36,0 -63.46,11.85 -87.24,35.61 -23.78,23.69 -35.63,52.26 -35.63,85.56 0,35.41 11.85,64.99 35.56,88.69 23.69,23.62 52.94,35.47 87.73,35.47 27.42,0 51.96,-8.46 73.69,-25.45 21.75,-16.93 35.84,-38.93 42.43,-65.93l-151.06 0 0 -25.6zm255.9 138.51l-29.44 0 0 -288.79 29.44 0 0 288.79zm48.38 0l-31.06 0 116.13 -288.79 35.35 0 115.7 288.79 -31.41 0 -35.76 -90.57 -133.19 0 -35.76 90.57zm158.63 -116.57l-56.73 -145.01 -55.89 145.01 112.62 0zm248.05 -42.65l125.81 0 0 28.43 -125.81 0 0 102.77 125.81 0 0 28.02 -155.28 0 0 -288.79 155.28 0 0 28.43 -125.81 0 0 101.14zm183.44 159.22l0 -288.79 43.21 0 103.57 251.08 103.09 -251.08 43.4 0 0 288.79 -28.19 0 0 -255.08 -105.19 255.08 -26.5 0 -105.19 -255.08 0 255.08 -28.2 0zm528.62 0l-29.46 0 0 -260.36 -59.75 0 0 -28.43 148.96 0 0 28.43 -59.76 0 0 260.36zm119.56 -159.22l125.81 0 0 28.43 -125.81 0 0 102.77 125.81 0 0 28.02 -155.27 0 0 -288.79 155.27 0 0 28.43 -125.81 0 0 101.14zm380.37 124.69l-3.36 -254.26 29.03 0 0 288.79 -35.35 0 -164.1 -254.67 3.38 254.67 -29.03 0 0 -288.79 35.34 0 164.09 254.26zm66.07 -47.93l28.19 0c0.55,17.87 5.82,32.01 15.78,42.65 9.96,10.56 23.07,15.84 39.27,15.84 17.45,0 31.28,-5.28 41.52,-15.77 10.23,-10.5 15.36,-24.78 15.36,-42.72 0,-26.2 -20.98,-45.97 -62.98,-59.3 -3.3,-1.09 -5.75,-1.83 -7.44,-2.37 -21.88,-7.32 -37.59,-16.52 -47.26,-27.69 -9.6,-11.17 -14.45,-25.73 -14.45,-43.73 0,-23.02 7.45,-41.83 22.31,-56.52 14.86,-14.69 34.01,-22 57.57,-22 22.44,0 40.25,6.7 53.44,20.03 13.11,13.34 20.48,32.16 21.95,56.32l-27.77 0c-1.47,-15.7 -6.38,-27.82 -14.58,-36.35 -8.21,-8.53 -19.29,-12.8 -33.1,-12.8 -14.79,0 -26.87,4.68 -36.26,13.95 -9.39,9.34 -14.1,21.19 -14.1,35.61 0,7.51 1.4,14.01 4.21,19.56 2.81,5.48 7.3,10.43 13.46,14.96 6.31,4.46 18.37,9.47 36.19,15.02 10.24,3.18 18.09,5.75 23.42,7.72 19.43,7.32 33.45,16.59 42.01,27.89 8.56,11.31 12.83,26.13 12.83,44.47 0,28.03 -7.92,50.58 -23.77,67.7 -15.78,17.13 -36.82,25.66 -62.98,25.66 -24.39,0 -44.18,-8.05 -59.39,-24.24 -15.21,-16.17 -23,-37.5 -23.41,-63.9zm227.14 -63.23c0,35.2 11.85,64.65 35.55,88.48 23.7,23.76 52.95,35.68 87.73,35.68 33.94,0 62.63,-12.05 86.04,-36.09 23.43,-24.09 35.14,-53.68 35.14,-88.88 0,-32.77 -12.05,-61.07 -36.18,-84.76 -24.06,-23.76 -53.1,-35.61 -87.11,-35.61 -13.81,0 -27.14,2.31 -39.89,6.84 -12.84,4.53 -24.62,11.31 -35.49,20.1 -14.23,11.64 -25.45,25.86 -33.59,42.65 -8.14,16.79 -12.2,33.99 -12.2,51.58zm-30.72 -0.47c0,-20.1 4,-39.26 12,-57.54 8.06,-18.21 19.63,-34.52 34.86,-48.94 14.65,-13.88 30.79,-24.31 48.38,-31.34 17.6,-6.97 36.67,-10.5 57.23,-10.5 20.9,0 40.33,3.53 58.2,10.63 17.89,7.04 34.22,17.6 49.01,31.61 15.22,14.42 26.65,30.53 34.29,48.34 7.65,17.87 11.51,37.09 11.51,57.74 0,20.45 -3.31,39.27 -9.89,56.39 -6.53,17.13 -16.42,32.7 -29.53,46.71 -15.22,16.11 -32.41,28.24 -51.62,36.43 -19.15,8.19 -39.97,12.31 -62.41,12.31 -42.99,0 -79.1,-14.55 -108.28,-43.72 -29.16,-29.11 -43.76,-65.2 -43.76,-108.12zm375.82 -13.06l125.8 0 0 28.43 -125.8 0 0 102.77 125.8 0 0 28.02 -155.27 0 0 -288.79 155.27 0 0 28.43 -125.8 0 0 101.14zm165.78 76.77l28.19 0c0.56,17.87 5.82,32.01 15.78,42.65 9.97,10.56 23.08,15.84 39.27,15.84 17.45,0 31.28,-5.28 41.52,-15.77 10.23,-10.5 15.36,-24.78 15.36,-42.72 0,-26.2 -20.97,-45.97 -62.98,-59.3 -3.3,-1.09 -5.74,-1.83 -7.43,-2.37 -21.88,-7.32 -37.6,-16.52 -47.27,-27.69 -9.6,-11.17 -14.45,-25.73 -14.45,-43.73 0,-23.02 7.45,-41.83 22.31,-56.52 14.86,-14.69 34.01,-22 57.57,-22 22.45,0 40.26,6.7 53.44,20.03 13.11,13.34 20.49,32.16 21.96,56.32l-27.78 0c-1.47,-15.7 -6.38,-27.82 -14.58,-36.35 -8.2,-8.53 -19.28,-12.8 -33.1,-12.8 -14.79,0 -26.86,4.68 -36.26,13.95 -9.39,9.34 -14.09,21.19 -14.09,35.61 0,7.51 1.4,14.01 4.2,19.56 2.81,5.48 7.3,10.43 13.47,14.96 6.3,4.46 18.37,9.47 36.18,15.02 10.24,3.18 18.09,5.75 23.43,7.72 19.43,7.32 33.45,16.59 42,27.89 8.57,11.31 12.83,26.13 12.83,44.47 0,28.03 -7.92,50.58 -23.76,67.7 -15.79,17.13 -36.82,25.66 -62.98,25.66 -24.4,0 -44.18,-8.05 -59.39,-24.24 -15.22,-16.17 -23.01,-37.5 -23.42,-63.9zm275.53 82.45l-29.46 0 0 -260.36 -59.75 0 0 -28.43 148.96 0 0 28.43 -59.76 0 0 260.36zm114.94 -260.36l0 260.36 -29.03 0 0 -288.79 80.43 0c17.66,0 31.9,1.28 42.64,3.86 10.8,2.57 20.55,6.83 29.31,12.79 11.92,8.06 21.31,18.82 28.26,32.3 6.94,13.53 10.39,27.82 10.39,42.85 0,22.34 -6.88,41.57 -20.69,57.68 -13.76,16.17 -31,24.91 -51.68,26.4l72.37 112.91 -34.93 0 -88.85 -139.31 28.4 0c18.86,0 34.23,-5.35 46.07,-16.04 11.85,-10.7 17.75,-24.45 17.75,-41.24 0,-10.15 -1.82,-19.36 -5.46,-27.68 -3.59,-8.32 -8.98,-15.64 -16.07,-21.8 -5.88,-5.15 -12.97,-8.87 -21.24,-11.03 -8.35,-2.17 -23.08,-3.25 -44.25,-3.25l-43.41 0zm204.55 -28.43l29.46 0 0 182.64c0,14.09 0.56,24.71 1.75,31.68 1.13,7.04 3.08,13.2 5.82,18.69 5.39,10.96 13.18,19.56 23.56,25.72 10.31,6.23 22.02,9.34 35.07,9.34 22.57,0 39.27,-7.45 50.13,-22.34 10.8,-14.82 16.2,-37.84 16.2,-69.05l0 -176.68 29.03 0 0 183.58c0,37.44 -7.72,65.33 -23.15,83.74 -15.43,18.35 -38.85,27.56 -70.19,27.56 -33.6,0 -58.29,-9.01 -74.06,-26.95 -15.79,-18.01 -23.64,-46.1 -23.64,-84.35l0 -183.58zm306.31 288.79l-29.46 0 0 -260.36 -59.74 0 0 -28.43 148.95 0 0 28.43 -59.76 0 0 260.36zm85.49 -288.79l29.44 0 0 182.64c0,14.09 0.56,24.71 1.75,31.68 1.13,7.04 3.09,13.2 5.82,18.69 5.4,10.96 13.18,19.56 23.56,25.72 10.32,6.23 22.02,9.34 35.07,9.34 22.57,0 39.27,-7.45 50.13,-22.34 10.8,-14.82 16.2,-37.84 16.2,-69.05l0 -176.68 29.03 0 0 183.58c0,37.44 -7.72,65.33 -23.15,83.74 -15.43,18.35 -38.84,27.56 -70.19,27.56 -33.6,0 -58.29,-9.01 -74.06,-26.95 -15.78,-18.01 -23.63,-46.1 -23.63,-84.35l0 -183.58zm267.17 28.43l0 260.36 -29.03 0 0 -288.79 80.44 0c17.66,0 31.9,1.28 42.64,3.86 10.8,2.57 20.54,6.83 29.3,12.79 11.92,8.06 21.32,18.82 28.27,32.3 6.94,13.53 10.38,27.82 10.38,42.85 0,22.34 -6.87,41.57 -20.69,57.68 -13.75,16.17 -30.99,24.91 -51.68,26.4l72.37 112.91 -34.93 0 -88.85 -139.31 28.4 0c18.86,0 34.23,-5.35 46.08,-16.04 11.84,-10.7 17.75,-24.45 17.75,-41.24 0,-10.15 -1.83,-19.36 -5.47,-27.68 -3.58,-8.32 -8.98,-15.64 -16.06,-21.8 -5.9,-5.15 -12.98,-8.87 -21.24,-11.03 -8.35,-2.17 -23.09,-3.25 -44.26,-3.25l-43.41 0zm201.96 260.36l-31.07 0 116.14 -288.79 35.34 0 115.7 288.79 -31.41 0 -35.76 -90.57 -133.18 0 -35.76 90.57zm158.63 -116.57l-56.74 -145.01 -55.89 145.01 112.63 0zm95.59 34.12l28.19 0c0.56,17.87 5.82,32.01 15.78,42.65 9.96,10.56 23.07,15.84 39.27,15.84 17.45,0 31.28,-5.28 41.52,-15.77 10.23,-10.5 15.36,-24.78 15.36,-42.72 0,-26.2 -20.97,-45.97 -62.98,-59.3 -3.3,-1.09 -5.75,-1.83 -7.44,-2.37 -21.88,-7.32 -37.59,-16.52 -47.26,-27.69 -9.6,-11.17 -14.45,-25.73 -14.45,-43.73 0,-23.02 7.45,-41.83 22.31,-56.52 14.86,-14.69 34.01,-22 57.57,-22 22.44,0 40.25,6.7 53.44,20.03 13.11,13.34 20.48,32.16 21.95,56.32l-27.77 0c-1.47,-15.7 -6.38,-27.82 -14.58,-36.35 -8.21,-8.53 -19.29,-12.8 -33.1,-12.8 -14.79,0 -26.87,4.68 -36.26,13.95 -9.39,9.34 -14.1,21.19 -14.1,35.61 0,7.51 1.4,14.01 4.21,19.56 2.81,5.48 7.3,10.43 13.46,14.96 6.31,4.46 18.38,9.47 36.19,15.02 10.24,3.18 18.09,5.75 23.42,7.72 19.43,7.32 33.45,16.59 42.01,27.89 8.56,11.31 12.83,26.13 12.83,44.47 0,28.03 -7.92,50.58 -23.77,67.7 -15.78,17.13 -36.81,25.66 -62.97,25.66 -24.4,0 -44.18,-8.05 -59.4,-24.24 -15.21,-16.17 -23,-37.5 -23.41,-63.9z"/>
   <path class="fil0" d="M6394.44 2340.37c-55.7,-55.7 -132.66,-90.16 -217.67,-90.16 -85.01,0 -161.98,34.46 -217.67,90.16 -55.7,55.7 -90.16,132.66 -90.16,217.67 0,85.01 34.46,161.98 90.16,217.66 55.7,55.7 132.66,90.16 217.67,90.16 85.01,0 161.98,-34.46 217.66,-90.15 55.7,-55.7 90.16,-132.66 90.16,-217.67 0,-85.01 -34.46,-161.98 -90.15,-217.67z"/>
   <path class="fil1" d="M4535.74 2563.06c0,78.6 29.33,146.3 88.01,202.72 57.91,56.79 126.74,85 206.1,85 80.1,0 148.94,-28.21 207.23,-85 58.67,-56.42 88,-124.12 88,-202.72 0,-51.15 -13.53,-98.17 -40.62,-141.04 -27.45,-43.26 -63.56,-77.85 -109.06,-103.43 -45.13,-25.58 -93.66,-38.75 -145.55,-38.75 -50.78,0 -98.92,13.17 -144.42,38.75 -45.52,25.58 -82,60.17 -109.07,103.43 -27.08,42.87 -40.62,89.89 -40.62,141.04zm1641.03 -413.62c112.82,0 214.98,45.75 288.92,119.68 73.92,73.93 119.67,176.1 119.67,288.92 0,112.82 -45.75,214.98 -119.68,288.92 -73.92,73.92 -176.09,119.67 -288.91,119.67 -112.82,0 -214.98,-45.75 -288.92,-119.68 -73.93,-73.92 -119.68,-176.09 -119.68,-288.91 0,-112.82 45.75,-214.98 119.68,-288.92 73.93,-73.93 176.1,-119.68 288.92,-119.68zm-1992.69 -586.82l351.66 -1.12 0 465.23 25.2 -11.29 25.19 -10.9c79.36,-28.59 160.6,-42.88 243.72,-42.88 83.49,0 165.1,14.29 244.47,42.88 77.1,28.59 146.68,70.71 208.35,126.75 60.94,54.91 108.33,119.22 142.18,192.94 34.59,74.09 51.9,153.83 51.9,238.82 0,87.63 -16.92,167.74 -50.77,240.33 -33.86,72.58 -81.62,137.28 -143.3,194.07 -62.43,56.41 -132.01,98.53 -208.35,126.75 -77.11,30.08 -158.72,45.12 -244.47,45.12 -112.46,0 -218.52,-26.7 -318.56,-79.36 -100.04,-52.28 -179.03,-124.11 -238.07,-216.26 -58.68,-90.26 -88.39,-191.06 -89.14,-302.76l0 -1008.33zm1993.35 1606.72c-112.46,0 -218.52,-26.7 -318.56,-79.36 -100.04,-53.03 -179.03,-125.24 -238.07,-217.01 -59.42,-92.9 -89.14,-196.33 -89.14,-311.04 0,-85.76 17.3,-165.87 51.91,-239.95 34.59,-74.47 81.99,-138.41 142.17,-192.94 60.93,-54.91 130.12,-97.41 207.98,-126.75 79.36,-29.33 160.6,-44.01 243.72,-44.01 83.49,0 165.1,14.67 244.47,44.01 77.1,27.83 146.68,69.95 208.35,125.62 60.94,56.04 108.33,120.35 142.18,194.07 34.59,74.09 51.9,154.2 51.9,239.95 0,87.63 -16.92,167.74 -50.77,240.33 -33.86,73.34 -81.62,138.41 -143.3,195.2 -62.43,55.67 -132.01,97.79 -208.35,126.75 -77.11,30.08 -158.72,45.12 -244.47,45.12zm1570.23 -824.42c-31.59,-26.32 -66.2,-46.25 -103.8,-59.42 -38.75,-13.16 -80.11,-19.93 -123.36,-19.93 -80.87,0 -148.94,26.33 -204.98,78.23 -56.42,52.28 -84.63,116.97 -84.63,194.07 0,60.18 12.03,114.33 36.11,162.1 23.69,47.76 58.67,85.38 104.93,113.2 44.76,28.96 96.29,43.26 155.34,43.26 86.5,0 160.59,-27.83 222.65,-82.74l192.56 244.46c-27.83,29.34 -66.94,55.67 -116.59,78.24 -50.78,22.94 -103.06,39.86 -156.46,50.77 -53.79,10.91 -103.43,16.55 -148.94,16.55 -127.88,0 -240.71,-26.69 -338.12,-80.48 -97.79,-54.15 -172.63,-125.62 -224.91,-213.62 -52.28,-89.51 -78.23,-185.42 -78.23,-287.72 0,-93.27 15.8,-177.9 47.39,-253.5 32.34,-77.1 76.73,-143.29 133.14,-198.2 56.04,-53.78 124.12,-95.9 203.85,-126.75 79.36,-30.09 165.11,-45.13 256.88,-45.13 74.84,0 148.18,11.66 219.27,35.36 72.21,24.06 135.39,58.3 190.69,102.29l-182.79 248.98zm519.03 74.85c27.08,-43.26 63.56,-77.85 109.07,-103.43 45.51,-24.83 93.65,-37.62 144.42,-37.62 51.9,0 100.42,12.79 145.55,37.62 45.51,25.58 81.61,60.17 109.06,103.43 27.09,43.62 40.62,91.02 40.62,142.17 0,77.85 -29.33,145.17 -88,201.96 -58.3,55.67 -127.13,83.5 -207.23,83.5 -79.37,0 -148.19,-27.83 -206.1,-83.5 -58.68,-56.79 -88.01,-124.11 -88.01,-201.96 0,-51.15 13.54,-98.54 40.62,-142.17zm549.86 713.09l349.4 3.39 1.13 -574.31c0,-85.76 -17.3,-165.87 -51.9,-239.95 -33.85,-72.21 -81.62,-136.15 -143.29,-191.82 -58.68,-54.54 -127.88,-96.29 -207.23,-125.62 -79.37,-29.33 -160.98,-44.01 -244.47,-44.01 -84.63,0 -166.24,15.04 -244.85,45.13 -78.6,28.59 -147.43,69.95 -206.85,124.49 -60.18,54.15 -107.57,118.09 -142.17,191.82 -34.6,74.09 -51.91,154.2 -51.91,239.95 0,113.96 29.72,217.38 89.14,309.91 59.04,91.02 138.02,162.85 238.07,215.88 100.04,52.28 206.1,78.23 318.56,78.23 85,0 166.61,-15.03 244.47,-45.12 11.28,-3.77 28.21,-10.91 51.9,-21.06l0 33.09zm983.89 -1167.05c-23.32,-3.39 -47.39,-5.64 -71.47,-6.4l-19.93 0c-324.57,16.17 -487.05,184.67 -487.05,505.87l0 667.58 352.79 0 0 -667.58c0,-121.49 44.75,-183.92 134.27,-187.3l19.93 0c29.34,1.13 53.04,8.27 71.47,20.69l0 -332.85zm633.73 0c-23.32,-3.39 -47.39,-5.64 -71.47,-6.4l-19.93 0c-324.57,16.17 -487.05,184.67 -487.05,505.87l0 667.58 352.79 0 0 -667.58c0,-121.49 44.75,-183.92 134.27,-187.3l19.93 0c29.34,1.13 53.04,8.27 71.47,20.69l0 -332.85zm447.56 453.96c27.08,-43.26 63.56,-77.85 109.07,-103.43 45.51,-24.83 93.65,-37.62 144.42,-37.62 51.9,0 100.42,12.79 145.55,37.62 45.51,25.58 81.61,60.17 109.06,103.43 27.09,43.62 40.62,91.02 40.62,142.17 0,77.85 -29.33,145.17 -88,201.96 -58.3,55.67 -127.13,83.5 -207.23,83.5 -79.37,0 -148.19,-27.83 -206.1,-83.5 -58.68,-56.79 -88.01,-124.11 -88.01,-201.96 0,-51.15 13.54,-98.54 40.62,-142.17zm549.86 713.09l349.4 3.39 1.13 -574.31c0,-85.76 -17.3,-165.87 -51.9,-239.95 -33.85,-72.21 -81.62,-136.15 -143.29,-191.82 -58.68,-54.54 -127.88,-96.29 -207.23,-125.62 -79.37,-29.33 -160.98,-44.01 -244.47,-44.01 -84.63,0 -166.24,15.04 -244.85,45.13 -78.6,28.59 -147.43,69.95 -206.85,124.49 -60.18,54.15 -107.57,118.09 -142.17,191.82 -34.6,74.09 -51.91,154.2 -51.91,239.95 0,113.96 29.72,217.38 89.14,309.91 59.04,91.02 138.02,162.85 238.07,215.88 100.04,52.28 206.1,78.23 318.56,78.23 85,0 166.61,-15.03 244.47,-45.12 11.28,-3.77 28.21,-10.91 51.9,-21.06l0 33.09zm1566.85 -787.94c-31.59,-26.32 -66.2,-46.25 -103.8,-59.42 -38.75,-13.16 -80.11,-19.93 -123.36,-19.93 -80.87,0 -148.94,26.33 -204.98,78.23 -56.42,52.28 -84.63,116.97 -84.63,194.07 0,60.18 12.03,114.33 36.11,162.1 23.69,47.76 58.67,85.38 104.93,113.2 44.76,28.96 96.29,43.26 155.34,43.26 86.5,0 160.59,-27.83 222.65,-82.74l192.56 244.46c-27.83,29.34 -66.94,55.67 -116.59,78.24 -50.78,22.94 -103.06,39.86 -156.46,50.77 -53.79,10.91 -103.43,16.55 -148.94,16.55 -127.88,0 -240.71,-26.69 -338.12,-80.48 -97.79,-54.15 -172.63,-125.62 -224.91,-213.62 -52.28,-89.51 -78.23,-185.42 -78.23,-287.72 0,-93.27 15.8,-177.9 47.39,-253.5 32.34,-77.1 76.73,-143.29 133.14,-198.2 56.04,-53.78 124.12,-95.9 203.85,-126.75 79.36,-30.09 165.11,-45.13 256.88,-45.13 74.84,0 148.18,11.66 219.27,35.36 72.21,24.06 135.39,58.3 190.69,102.29l-182.79 248.98zm614.93 -339.24l0 1129.44 -351.66 0 0 -1128.31 351.66 -1.13zm1.13 -319.69c0,35.36 -8.27,66.58 -24.45,93.66 -16.17,27.45 -37.98,49.27 -66.2,66.2 -27.82,16.92 -58.67,25.58 -92.52,25.58 -33.85,0 -64.31,-8.27 -91.4,-24.45 -27.82,-16.93 -50.01,-39.12 -66.19,-67.32 -16.93,-29.33 -25.2,-60.55 -25.2,-93.66 0,-33.85 7.9,-64.68 24.07,-92.52 17.68,-28.59 40.24,-51.15 67.31,-67.32 27.09,-15.79 57.55,-24.07 91.4,-24.07 33.85,0 64.69,8.28 92.52,24.07 27.46,16.17 49.28,38.74 66.2,67.32 16.17,27.83 24.45,58.67 24.45,92.52zm633.36 279.83c-23.32,-3.39 -47.39,-5.64 -71.47,-6.4l-19.93 0c-324.57,16.17 -487.05,184.67 -487.05,505.87l0 667.58 352.79 0 0 -667.58c0,-121.49 44.75,-183.92 134.27,-187.3l19.93 0c29.34,1.13 53.04,8.27 71.47,20.69l0 -332.85zm923.71 379.11c-31.59,-26.32 -66.2,-46.25 -103.8,-59.42 -38.75,-13.16 -80.11,-19.93 -123.36,-19.93 -80.87,0 -148.94,26.33 -204.98,78.23 -56.42,52.28 -84.63,116.97 -84.63,194.07 0,60.18 12.03,114.33 36.11,162.1 23.69,47.76 58.67,85.38 104.93,113.2 44.76,28.96 96.29,43.26 155.34,43.26 86.5,0 160.59,-27.83 222.65,-82.74l192.56 244.46c-27.83,29.34 -66.94,55.67 -116.59,78.24 -50.78,22.94 -103.06,39.86 -156.46,50.77 -53.79,10.91 -103.43,16.55 -148.94,16.55 -127.88,0 -240.71,-26.69 -338.12,-80.48 -97.79,-54.15 -172.63,-125.62 -224.91,-213.62 -52.28,-89.51 -78.23,-185.42 -78.23,-287.72 0,-93.27 15.8,-177.9 47.39,-253.5 32.34,-77.1 76.73,-143.29 133.14,-198.2 56.04,-53.78 124.12,-95.9 203.85,-126.75 79.36,-30.09 165.11,-45.13 256.88,-45.13 74.84,0 148.18,11.66 219.27,35.36 72.21,24.06 135.39,58.3 190.69,102.29l-182.79 248.98zm737.16 502.48c-89.51,-3.01 -134.27,-65.07 -134.27,-186.17l0 -656.68 -352.79 0 0 656.68c0,319.69 162.48,488.18 487.05,505.86l19.93 0c324.58,-17.68 487.06,-186.16 487.06,-505.86l0 -656.68 -352.79 0 0 656.68c0,121.11 -44.76,183.16 -134.28,186.17l-19.93 0zm740.55 -69.21c69.58,69.58 154.96,104.56 255.38,104.56 105.3,0 157.58,-30.84 157.58,-92.52 0,-32.35 -28.96,-56.42 -86.88,-71.84 -41.37,-9.4 -106.43,-25.95 -196.32,-49.27 -72.58,-19.19 -133.89,-54.54 -183.92,-106.06 -49.27,-50.41 -73.71,-128.25 -73.71,-233.56 0,-80.86 20.31,-148.94 60.55,-204.98 40.99,-55.67 94.4,-97.03 159.84,-123.36 66.57,-27.08 139.91,-40.62 219.27,-40.62 44.76,0 90.27,6.02 136.52,18.8 50.02,15.43 94.78,34.23 134.28,57.17 43.62,24.07 81.61,51.53 114.71,81.62l-193.69 192.56c-56.79,-42.5 -118.48,-63.57 -185.42,-63.57 -80.11,0 -119.98,22.19 -119.98,66.95 0,40.62 29.71,68.83 89.13,85 65.44,17.68 131.26,34.22 197.46,49.64 72.58,18.06 133.14,51.91 181.66,101.17 49.27,50.02 73.71,128.63 73.71,235.82 0,80.11 -21.06,149.31 -63.94,207.23 -42.49,58.67 -99.29,102.3 -170.74,131.26 -71.09,30.08 -144.81,45.12 -221.53,45.12 -63.56,0 -121.48,-5.26 -172.63,-15.42 -51.52,-9.77 -99.67,-25.95 -144.42,-48.52 -46.26,-22.94 -94.77,-53.4 -145.55,-91.39l178.64 -235.82z"/>
   <path class="fil0" d="M17444.74 2958.72c0,-36.11 9.03,-68.83 27.46,-98.16 19.18,-30.84 43.62,-54.54 74.09,-71.46 30.85,-17.68 63.57,-26.33 97.79,-26.33 34.6,0 67.32,8.66 98.16,26.33 30.09,18.43 54.54,42.49 72.59,72.58 18.43,29.33 27.83,61.68 27.83,97.03 0,58.68 -19.19,107.2 -57.55,145.55 -38.74,38.75 -85.75,58.31 -141.04,58.31 -36.48,0 -69.95,-8.66 -100.04,-26.33 -30.84,-17.68 -55.28,-42.5 -72.96,-74.1 -17.69,-31.96 -26.33,-66.57 -26.33,-103.43z"/>
  </g>
 </g>
</svg>
